<svg width="16" height="16" viewBox="0 0 16 16" fill="none" xmlns="http://www.w3.org/2000/svg">
<path d="M2.33708 2.97264L5.99989 13.5541C6.03438 13.6537 6.09949 13.7399 6.18591 13.8003C6.27233 13.8608 6.37564 13.8923 6.48107 13.8905C6.5865 13.8886 6.68865 13.8535 6.77292 13.7901C6.85719 13.7268 6.91926 13.6384 6.95027 13.5376L8.4225 8.75286C8.44648 8.67491 8.48917 8.60402 8.54683 8.54635C8.6045 8.48868 8.6754 8.446 8.75334 8.42201L13.5381 6.94979C13.6389 6.91878 13.7273 6.8567 13.7906 6.77243C13.854 6.68816 13.8891 6.58601 13.891 6.48058C13.8928 6.37516 13.8612 6.27185 13.8008 6.18543C13.7404 6.09901 13.6542 6.0339 13.5546 5.9994L2.97313 2.33659C2.88446 2.3059 2.78894 2.30077 2.69749 2.32181C2.60605 2.34284 2.52237 2.38918 2.45602 2.45553C2.38967 2.52188 2.34333 2.60556 2.32229 2.697C2.30126 2.78845 2.30638 2.88397 2.33708 2.97264V2.97264Z" stroke="#6E9BB8" stroke-linecap="round" stroke-linejoin="round"/>
</svg>
